<svg class="conf-feature__icon" xmlns="http://www.w3.org/2000/svg" width="84" height="84" viewBox="0 0 84 84"><path fill="#0e4723" d="M42 74c-17.6 0-32-14.4-32-32s14.4-32 32-32 32 14.4 32 32-14.4 32-32 32zm0-61.3c-16.2 0-29.3 13.2-29.3 29.3S25.8 71.3 42 71.3 71.3 58.2 71.3 42 58.2 12.7 42 12.7z"></path><path fill="#0e4723" d="M57.9 34.3l1-1.9 3.1-5.2s-7.1 4.1-7.3 4.2c-.2.1-.3.2-.5.4-.6.6-.8 1.4-.6 2.1.1.4.3.7.6 1 .3.3.6.5 1 .6.7.2 1.6 0 2.1-.6.2-.2.3-.3.4-.5l.2-.1z"></path><path fill="#0e4723" d="M56.9 37.2c-.4.1-.8.2-1.3.2-2 0-3.7-1.6-3.7-3.7 0-.4.1-.8.2-1.2-1.7-1.1-3.4-1.5-6-1.5-11.2 0-13 5.3-13 11.9 0 1.5.2 3.3-.8 4.9-1.6 2.4-3.6 2.4-4.1 2.4-.7 0-3.2-.4-3.3-1.1h.4c2.7 0 4.7-2.2 4.7-5.2v-1h-2.3c-1.7 0-3.2.8-4.2 2.1-1-1.3-2.5-2.1-4.2-2.1H17v1c0 2.9 2.3 5.2 5.2 5.2h.8c0 1.7 2.3 8.2 19.3 8.2 6.7 0 16.5-1.2 16.5-13.7 0-2.4-.8-4.5-1.9-6.4z"></path></svg>