<svg class="conf-feature__icon" xmlns="http://www.w3.org/2000/svg" x="0px" y="0px" width="107" height="84" viewBox="0 0 107 84"><g fill="none" stroke="#0e4723" stroke-miterlimit="10"><circle stroke-width="4px" cx="48" cy="13" r="6" stroke="#0e4723" fill="none"></circle><path stroke-width="4px" d="M27.7 39.2L38 50 38 65" stroke="#0e4723" fill="none"></path><path stroke-width="4px" d="M43.5 18L25 40 25 55 14.7 65.8" stroke="#0e4723" fill="none"></path><path stroke-width="4px" d="M40 24L47.7 34 58.4 36M24.1 32.1l-3-2.6c-1.7-1.4-.4-2.7 1.1-4.3l5.2-6.1c1.4-1.7 2.4-3.2 4.1-1.7l3 2.6L24.1 32.1z" stroke="#0e4723" fill="none"></path><path stroke-width="2px" d="M47.8 65.4L57.2 30.6" stroke="#0e4723" fill="none"></path><path stroke-width="4px" d="M0 78L18 78 29.5 67 65 67 79.8 52.3 85 36.5 106 24.5" stroke="#0e4723" fill="none"></path></g></svg>