<svg class="conf-feature__icon" xmlns="http://www.w3.org/2000/svg" width="84" height="84" viewBox="0 0 84 84"><path fill="#0e4723" d="M47 32c2.2 0 4 1.8 4 4v43H33V36c0-2.2 1.8-4 4-4h10m0-4H37c-4.4 0-8 3.6-8 8v47h26V36c0-4.4-3.6-8-8-8z"></path><path fill="#0e4723" d="M45 21v7h-6v-7h6m0-4h-6c-2.2 0-4 1.8-4 4v11h14V21c0-2.2-1.8-4-4-4z"></path><path fill="#0e4723" d="M43 11v5h-2v-5h2m2-4h-4c-2.2 0-4 1.8-4 4v9h10V9c0-1.1-.9-2-2-2zM29 42h26v27H29z"></path><path fill="#ffffff" d="M42 50c3 0 5.5 2.5 5.5 5.5S45 61 42 61s-5.5-2.5-5.5-5.5S39 50 42 50m0-2c-4.1 0-7.5 3.4-7.5 7.5S37.9 63 42 63s7.5-3.4 7.5-7.5S46.1 48 42 48z"></path><path fill="none" stroke="#ffffff" stroke-width="2px" stroke-miterlimit="10" d="M37.5 60l9-9"></path><g fill="#0e4723"><path d="M52 11h3v3h-3zM58 11h3v3h-3zM64 11h3v3h-3zM70 11h3v3h-3z" fill="#0e4723"></path></g><g fill="#0e4723"><path d="M51.26 7.278l2.77-1.148 1.148 2.772-2.77 1.148zM56.76 4.995l2.772-1.148 1.148 2.77-2.772 1.15zM62.355 2.673l2.77-1.148 1.15 2.772-2.772 1.148z" fill="#0e4723"></path></g><g fill="#0e4723"><path d="M52.374 15.244l2.772 1.148-1.148 2.772-2.772-1.148zM57.876 17.528l2.772 1.148-1.15 2.77-2.77-1.147zM63.47 19.85l2.772 1.147-1.148 2.772-2.772-1.15z" fill="#0e4723"></path></g></svg>