<svg class="conf-feature__icon" xmlns="http://www.w3.org/2000/svg" x="0px" y="0px" width="115" height="84" viewBox="0 0 115 84"><path fill="none" stroke="#0e4723" stroke-width="4px" stroke-miterlimit="10" d="M27 44L27 84M27.4 55.9L38.6 79.1M15.4 79.1L26.6 55.9"></path><g fill="none" stroke="#0e4723" stroke-width="4px" stroke-miterlimit="10"><path d="M51.2 32.7L4.1 42.2 2.5 36.4 48.1 21.1zM12.7 39.8L10.7 32.1M38.4 23.6L41.5 35.2" stroke="#0e4723" fill="none" stroke-width="4px"></path></g><path fill="none" stroke="#0e4723" stroke-width="4px" stroke-miterlimit="10" d="M31.7 36.6c.7 2.7-.9 5.4-3.5 6.1-2.7.7-5.4-.9-6.1-3.5M96 14c-12 1.1-12.9 2-14 14-1.1-12-2-12.9-14-14 12-1.1 12.9-2 14-14C83.1 12 84 12.9 96 14zM111.3 27c-2.6 1.5-3.8 2.7-5.3 5.3-1.5-2.6-2.7-3.8-5.3-5.3 2.6-1.5 3.8-2.7 5.3-5.3C107.5 24.3 108.7 25.5 111.3 27z"></path><circle fill="#0e4723" cx="106" cy="2.5" r="2.5"></circle></svg>