<svg class="conf-logo" xmlns="http://www.w3.org/2000/svg" width="163" height="67" viewBox="0 0 163 67"><g fill="#167a3e"><path d="M98 8c-7.7 0-14 6.3-14 14s6.3 14 14 14 14-6.3 14-14-6.3-14-14-14zm-2.5 18L94 27.5 88.5 22l5.5-5.5 1.5 1.5-4 4 4 4zm6.4 1.5l-1.5-1.5 4-4-4-4 1.5-1.5 5.5 5.5-5.5 5.5z" fill="#167a3e"></path><path d="M6.4 67l24.4-30.3 11 9.4L52.1 36l14.7 15.2 12.5-11.6L101.5 67h6.4L97.2 53.7l2.9 3.6 11.5-13.4 10.6 6.4 15.3-5.1L156.2 67h6.4L124 22 97 53.4 54 0 0 67h6.4zM124 29.5l9.9 11.6-11.1 3.7-7.9-4.7 9.1-10.6zM54 8l22.3 27.7-9.2 8.5-14.9-15.4-10.6 10.5-7.6-6.5L54 8z" fill="#167a3e"></path></g></svg>